<svg xmlns="http://www.w3.org/2000/svg" viewBox="0 0 100 100">
  <defs>
    <linearGradient id="bg" x1="0%" y1="0%" x2="100%" y2="100%">
      <stop offset="0%" stop-color="#7aa2f7"/>
      <stop offset="100%" stop-color="#bb9af7"/>
    </linearGradient>
  </defs>
  <rect x="4" y="4" width="92" height="92" rx="22" fill="#1a1b26"/>
  <rect x="4" y="4" width="92" height="92" rx="22" fill="url(#bg)" opacity="0.92"/>
  <!-- destello: algo que empieza -->
  <path d="M44 24 C47 42 55 51 73 54 C55 57 47 66 44 84 C41 66 33 57 15 54 C33 51 41 42 44 24 Z" fill="#1a1b26" opacity="0.95"/>
  <path d="M76 16 C77 23 80 26 87 27 C80 28 77 31 76 38 C75 31 72 28 65 27 C72 26 75 23 76 16 Z" fill="#1a1b26" opacity="0.95"/>
</svg>
